<svg width="260" height="109" viewBox="0 0 260 109" fill="none" xmlns="http://www.w3.org/2000/svg">
<path d="M141.949 60.1353L124.625 13.1769H124.33C124.428 14.1771 124.502 15.4523 124.551 17.0026C124.649 18.5528 124.723 20.2531 124.772 22.1035C124.821 23.9038 124.846 25.7541 124.846 27.6545V60.1353H118.727V6.57568H128.532L144.751 50.4586H145.046L161.559 6.57568H171.291V33.3555V60.1353H164.729V27.2044C164.729 25.4541 164.754 23.7288 164.803 22.0285C164.852 20.2781 164.926 18.6529 165.024 17.1526C165.123 15.6023 165.196 14.3021 165.245 13.2519H164.951L147.405 60.1353H141.949Z" fill="#DF0610"/>
<path d="M199.543 52.934L197.479 59.9853H181.039V59.4602C181.874 59.4602 182.439 59.1101 182.734 58.41C183.078 57.7099 183.25 56.9597 183.25 56.1596V28.6296C183.25 27.7795 183.078 27.0044 182.734 26.3042C182.439 25.6041 181.874 25.254 181.039 25.254V24.7289H196.152L197.331 30.505H196.594C196.446 30.0549 196.201 29.7298 195.857 29.5298C195.513 29.2798 195.144 29.1047 194.751 29.0047C194.358 28.8547 193.964 28.7797 193.571 28.7797C193.178 28.7297 192.834 28.7047 192.539 28.7047H189.074V38.3064H189.811C191.237 38.3064 192.343 38.2814 193.129 38.2314C193.964 38.1814 194.579 37.6563 194.972 36.6561H195.709V44.0074H194.972C194.53 43.1072 193.915 42.6072 193.129 42.5071C192.343 42.4071 191.237 42.3571 189.811 42.3571H189.074V56.0096H194.825C195.66 55.9596 196.446 55.6595 197.184 55.1094C197.97 54.5093 198.511 53.7842 198.806 52.934H199.543Z" fill="#DF0610"/>
<path d="M229.014 25.254C228.178 25.254 227.588 25.6291 227.244 26.3792C226.949 27.0794 226.802 27.8545 226.802 28.7047V56.1596C226.802 57.0097 226.949 57.7849 227.244 58.485C227.588 59.1851 228.178 59.5352 229.014 59.5352V60.0603H220.314L209.551 31.9302V56.1596C209.551 57.0097 209.698 57.7849 209.993 58.485C210.337 59.1851 210.927 59.5352 211.763 59.5352V60.0603H203.285V59.5352C204.12 59.5352 204.685 59.1851 204.98 58.485C205.324 57.7849 205.496 57.0097 205.496 56.1596V28.6296C205.496 27.7795 205.324 27.0044 204.98 26.3042C204.685 25.6041 204.12 25.254 203.285 25.254V24.7289H212.647L222.747 51.2087V28.6296C222.747 27.7795 222.575 27.0044 222.231 26.3042C221.936 25.6041 221.371 25.254 220.536 25.254V24.7289H229.014V25.254Z" fill="#DF0610"/>
<path d="M259.825 24.7289V25.254C258.99 25.254 258.4 25.6291 258.056 26.3792C257.761 27.0794 257.613 27.8545 257.613 28.7047V49.2584C257.613 50.7586 257.319 52.1839 256.729 53.5341C256.188 54.8344 255.426 55.9846 254.443 56.9847C253.51 57.9349 252.404 58.685 251.126 59.2351C249.848 59.7852 248.472 60.0603 246.998 60.0603C245.523 60.0603 244.122 59.7852 242.795 59.2351C241.518 58.685 240.387 57.9349 239.404 56.9847C238.47 55.9846 237.733 54.8344 237.193 53.5341C236.652 52.1839 236.382 50.7586 236.382 49.2584V28.6296C236.332 27.7795 236.136 27.0044 235.792 26.3042C235.497 25.6041 234.956 25.254 234.17 25.254V24.7289H244.417V25.254C243.582 25.254 242.992 25.6291 242.648 26.3792C242.353 27.0794 242.206 27.8545 242.206 28.7047V51.1337C242.206 52.4839 242.673 53.6341 243.606 54.5843C244.54 55.5345 245.671 56.0096 246.998 56.0096C248.275 56.0096 249.381 55.5345 250.315 54.5843C251.249 53.6341 251.716 52.4839 251.716 51.1337V28.6296C251.716 27.7795 251.544 27.0044 251.2 26.3042C250.905 25.6041 250.34 25.254 249.504 25.254V24.7289H259.825Z" fill="#DF0610"/>
<path d="M188.85 78.3455C188.85 80.1224 188.398 81.7531 187.494 83.2374C186.59 84.7217 185.275 85.9342 183.549 86.875C181.823 87.8157 179.768 88.3697 177.384 88.537L176.059 96.0944C175.545 99.0002 174.148 100.453 171.867 100.453C170.614 100.453 169.453 100.077 168.384 99.3243C167.336 98.5717 166.494 97.4219 165.857 95.8748C165.22 94.3278 164.901 92.4254 164.901 90.1676C164.901 85.9238 165.569 82.328 166.905 79.3803C168.261 76.4117 170.069 74.1957 172.329 72.7323C174.61 71.248 177.117 70.5059 179.85 70.5059C181.782 70.5059 183.415 70.8508 184.751 71.5407C186.107 72.2306 187.124 73.1713 187.802 74.3629C188.501 75.5337 188.85 76.8612 188.85 78.3455ZM177.939 85.307C182.152 84.7635 184.258 82.5371 184.258 78.6277C184.258 77.2479 183.806 76.1295 182.902 75.2723C182.018 74.3943 180.641 73.9553 178.771 73.9553C176.655 73.9553 174.806 74.6347 173.223 75.9936C171.662 77.3525 170.449 79.2444 169.586 81.6695C168.744 84.0736 168.323 86.8227 168.323 89.9167C168.323 91.2129 168.446 92.3627 168.692 93.3662C168.96 94.3696 169.288 95.1536 169.679 95.7181C170.09 96.2616 170.48 96.5334 170.85 96.5334C171.364 96.5334 171.754 95.8121 172.021 94.3696L173.038 88.4429C172.237 88.3175 171.888 88.2652 171.99 88.2861C171.374 88.1816 170.973 87.9934 170.788 87.7216C170.603 87.429 170.511 87.0631 170.511 86.6241C170.511 86.1642 170.634 85.7983 170.881 85.5266C171.148 85.2548 171.508 85.1189 171.96 85.1189C172.165 85.1189 172.319 85.1293 172.422 85.1503C172.915 85.2339 173.295 85.2861 173.562 85.307C173.83 83.6764 174.21 81.4918 174.703 78.7531C174.826 78.0423 175.104 77.5406 175.535 77.2479C175.987 76.9343 176.511 76.7775 177.107 76.7775C177.785 76.7775 178.268 76.9134 178.556 77.1852C178.864 77.4361 179.018 77.8437 179.018 78.4082C179.018 78.7427 178.997 79.0145 178.956 79.2235L177.939 85.307Z" fill="black"/>
<path d="M190.118 97.1919C189.337 97.1919 188.782 96.7738 188.453 95.9376C188.145 95.1013 187.991 93.7634 187.991 91.9237C187.991 89.2059 188.371 86.6241 189.131 84.1781C189.316 83.5719 189.614 83.1329 190.025 82.8611C190.457 82.5684 191.053 82.4221 191.813 82.4221C192.224 82.4221 192.512 82.4743 192.676 82.5789C192.84 82.6834 192.923 82.882 192.923 83.1747C192.923 83.5092 192.769 84.2618 192.46 85.4325C192.255 86.2687 192.09 87.0004 191.967 87.6276C191.844 88.2547 191.741 89.0282 191.659 89.9481C192.337 88.1502 193.097 86.6868 193.94 85.5579C194.782 84.429 195.604 83.6241 196.406 83.1433C197.228 82.6625 197.978 82.4221 198.656 82.4221C199.991 82.4221 200.659 83.1015 200.659 84.4604C200.659 84.7321 200.567 85.3907 200.382 86.436C200.217 87.2722 200.135 87.7948 200.135 88.0039C200.135 88.7356 200.392 89.1014 200.906 89.1014C201.481 89.1014 202.221 88.6415 203.125 87.7216C203.392 87.4499 203.669 87.314 203.957 87.314C204.224 87.314 204.43 87.4394 204.574 87.6903C204.738 87.9202 204.82 88.2338 204.82 88.631C204.82 89.4046 204.615 90.0108 204.204 90.4498C203.628 91.0561 202.95 91.5787 202.169 92.0178C201.409 92.4359 200.597 92.6449 199.734 92.6449C198.645 92.6449 197.813 92.3627 197.238 91.7982C196.683 91.2338 196.406 90.4707 196.406 89.5091C196.406 89.1955 196.436 88.8819 196.498 88.5683C196.539 88.1502 196.56 87.868 196.56 87.7216C196.56 87.3872 196.447 87.2199 196.221 87.2199C195.912 87.2199 195.501 87.5753 194.988 88.2861C194.495 88.976 194.001 89.8958 193.508 91.0456C193.015 92.1955 192.614 93.408 192.306 94.6832C192.08 95.6658 191.813 96.3348 191.505 96.6902C191.217 97.0247 190.755 97.1919 190.118 97.1919Z" fill="black"/>
<path d="M207.165 97.1919C205.953 97.1919 204.915 96.8888 204.052 96.2825C203.21 95.6553 202.573 94.84 202.141 93.8365C201.709 92.8331 201.494 91.7564 201.494 90.6066C201.494 89.0178 201.781 87.6067 202.357 86.3732C202.953 85.1189 203.754 84.1468 204.761 83.4569C205.768 82.7461 206.898 82.3907 208.151 82.3907C209.364 82.3907 210.401 82.7043 211.264 83.3315C212.128 83.9377 212.775 84.7426 213.206 85.7461C213.638 86.7495 213.854 87.8262 213.854 88.976C213.854 90.5648 213.556 91.9864 212.96 93.2407C212.364 94.4742 211.552 95.4463 210.525 96.1571C209.518 96.847 208.398 97.1919 207.165 97.1919ZM207.504 93.8052C208.203 93.8052 208.788 93.4184 209.261 92.6449C209.754 91.8714 210.001 90.7425 210.001 89.2582C210.001 88.1084 209.795 87.2408 209.384 86.6555C208.973 86.0701 208.48 85.7774 207.905 85.7774C207.165 85.7774 206.549 86.1642 206.055 86.9377C205.583 87.6903 205.347 88.8192 205.347 90.3244C205.347 91.516 205.552 92.3941 205.963 92.9585C206.374 93.523 206.888 93.8052 207.504 93.8052Z" fill="black"/>
<path d="M90.3237 83.2399L107.002 99.918C109.025 101.941 109.025 105.313 107.002 107.38C104.979 109.403 101.607 109.403 99.5394 107.38L82.8612 90.7024C80.8383 88.6794 80.8383 85.3078 82.8612 83.2399C84.8842 81.172 88.2108 81.172 90.3237 83.2399Z" fill="#989898"/>
<path d="M92.4209 46.3829C92.4209 71.6174 71.9643 92.074 46.7299 92.074C21.4954 92.074 1.03882 71.6174 1.03882 46.3829C1.03882 21.1485 21.4954 0.691895 46.7299 0.691895C49.8716 0.691895 52.9393 1.00899 55.9027 1.61292C55.2104 3.28798 55.9027 6.90517 58.4988 8.65321C56.2488 12.4608 58.1526 20.5952 66.6331 19.3837C68.8831 29.4219 77.8828 23.7227 78.7482 24.4028C80.6695 25.9128 78.7482 28.3834 82.3827 28.2104C86.0172 28.0373 83.2481 25.2681 86.7007 24.2297C90.3452 30.7915 92.4209 38.3448 92.4209 46.3829Z" fill="#989898"/>
<path fill-rule="evenodd" clip-rule="evenodd" d="M72.8713 25.2195C74.9842 25.2195 76.9622 24.3204 78.2209 22.8819C79.4347 23.6911 80.8283 24.2305 82.3567 24.2305C83.5256 24.2305 84.5146 23.9608 85.4586 23.5112C89.2348 30.2544 91.2128 37.8517 91.2128 45.6738C91.2128 57.7666 86.4476 69.3649 77.8163 77.9512C69.275 86.4926 57.6317 91.3027 45.494 91.3027C33.4012 91.3027 21.803 86.5375 13.1717 77.9512C4.76518 69.275 0 57.7217 0 45.5839C0 33.4911 4.76518 21.8929 13.3965 13.3515C21.9828 4.76518 33.581 0 45.6738 0C48.7757 0 51.8775 0.314682 54.7996 0.944046C54.7546 1.39359 54.6647 1.84314 54.6647 2.29268C54.6647 4.58536 55.7436 6.69823 57.4519 8.00191C56.8675 9.08082 56.5528 10.2946 56.5528 11.5533C56.5528 15.5543 59.7896 18.8809 63.8804 18.8809C64.5098 18.8809 65.0942 18.836 65.6786 18.7011C65.9933 22.2975 69.1401 25.2195 72.8713 25.2195Z" fill="#CCF3FF"/>
<path d="M45.6287 75.793C62.3518 75.793 75.8831 62.2617 75.8831 45.5386C75.8831 28.8155 62.3518 15.2842 45.6287 15.2842C28.9056 15.2842 15.3293 28.8155 15.3293 45.5386C15.3293 62.2617 28.9056 75.793 45.6287 75.793Z" fill="#ABDBEB"/>
<path fill-rule="evenodd" clip-rule="evenodd" d="M71.7473 30.2541C66.2179 23.8255 57.9912 19.7347 48.8205 19.7347C32.1424 19.7347 18.5661 33.311 18.5661 49.9891C18.5661 55.5185 20.0945 60.7332 22.7019 65.2737C18.0716 59.969 15.3293 53.046 15.3293 45.5386C15.3293 28.8605 28.9056 15.2842 45.6287 15.2842C56.7774 15.2842 66.5326 21.353 71.7473 30.2541Z" fill="#B5CAD1"/>
<path d="M89.2798 83.0314L105.958 99.7095C107.981 101.733 107.981 105.104 105.958 107.172C103.935 109.195 100.563 109.195 98.4955 107.172L81.8174 90.4939C79.7944 88.4709 79.7944 85.0993 81.8174 83.0314C83.8403 80.9635 87.167 80.9635 89.2798 83.0314Z" fill="#CCF3FF"/>
<path d="M83.0314 43.3816C83.0314 43.3367 82.9864 43.3367 82.9415 43.2917C82.8066 43.2468 82.7167 43.1569 82.5818 43.1119C82.7617 42.9321 83.0314 42.7073 83.3011 42.8871C83.4809 42.9771 83.5708 43.1569 83.6158 43.3367C83.6158 43.5165 83.5259 43.6963 83.391 43.8312C83.1662 44.056 82.8516 43.8312 82.6717 43.6963C82.7617 43.6064 82.8965 43.5615 82.9864 43.4716C83.0314 43.4266 83.0314 43.4266 83.0314 43.3816ZM80.0644 31.3788C80.0194 31.3788 80.0194 31.3338 79.9745 31.3338C79.8396 31.3338 79.7047 31.2889 79.6148 31.2889C79.7497 31.0641 79.8846 30.7494 80.1992 30.8393C80.424 30.8843 80.5139 31.0191 80.6488 31.154C80.6937 31.3338 80.6937 31.5136 80.5589 31.6935C80.3791 31.9632 80.0644 31.8733 79.8396 31.8283C79.9295 31.7384 79.9745 31.6036 80.0644 31.5136C80.0644 31.4687 80.0644 31.4237 80.0644 31.3788ZM52.0127 9.26114C51.9678 9.26114 51.9678 9.3061 51.9228 9.3061C51.8329 9.396 51.743 9.48591 51.6531 9.57582C51.5182 9.35105 51.3834 9.03637 51.6081 8.8116C51.743 8.63178 51.9228 8.63178 52.1026 8.63178C52.2825 8.72169 52.4623 8.81159 52.5072 8.99141C52.6421 9.26114 52.4173 9.48591 52.1926 9.66573C52.1476 9.53087 52.1026 9.44096 52.0577 9.3061C52.0577 9.35105 52.0127 9.3061 52.0127 9.26114ZM39.6502 9.21619C39.6053 9.26114 39.6053 9.26114 39.5603 9.3061C39.5154 9.44096 39.4704 9.53087 39.4255 9.66573C39.2456 9.48591 38.9759 9.26114 39.1108 8.99141C39.2007 8.81159 39.3356 8.72169 39.5154 8.63178C39.6952 8.63178 39.875 8.67673 40.0099 8.8116C40.2346 9.03637 40.0548 9.35105 39.9649 9.57582C39.875 9.48591 39.7851 9.396 39.6952 9.26114C39.7401 9.26114 39.6952 9.26114 39.6502 9.21619ZM28.007 13.2171C28.007 13.2621 27.962 13.2621 27.962 13.3071C27.962 13.4419 27.962 13.5768 27.9171 13.7116C27.6923 13.6217 27.3776 13.4869 27.4226 13.1722C27.4226 12.9474 27.5575 12.8126 27.6923 12.7226C27.8721 12.6777 28.052 12.6327 28.2318 12.7676C28.5015 12.9025 28.4565 13.2171 28.4116 13.4869C28.3217 13.4419 28.1868 13.352 28.0969 13.3071C28.052 13.2171 28.007 13.2171 28.007 13.2171ZM18.2069 20.7695C18.2069 20.8145 18.2069 20.8594 18.2069 20.8594C18.2519 20.9943 18.2968 21.1291 18.2968 21.2191C18.0271 21.1741 17.7124 21.1741 17.6225 20.8594C17.5775 20.6796 17.6225 20.4998 17.7574 20.32C17.8922 20.1851 18.072 20.1401 18.2968 20.1851C18.6115 20.2301 18.6565 20.5447 18.7014 20.8145C18.5665 20.7695 18.4317 20.7695 18.3418 20.7246C18.2968 20.7695 18.2519 20.7695 18.2069 20.7695ZM11.4188 31.1091C11.4188 31.154 11.4188 31.199 11.4637 31.199C11.5536 31.2889 11.5986 31.4237 11.6885 31.5136C11.4188 31.5586 11.1041 31.6485 10.9692 31.3788C10.8344 31.199 10.8344 31.0191 10.8793 30.8393C10.9692 30.6595 11.1041 30.5696 11.3289 30.5246C11.6435 30.4347 11.7784 30.7494 11.9133 30.9742C11.7784 30.9742 11.6435 31.0191 11.5536 31.0191C11.5087 31.0641 11.4637 31.0641 11.4188 31.1091ZM8.36186 43.067C8.36186 43.1119 8.40682 43.1119 8.40682 43.1569C8.49673 43.2468 8.63159 43.2917 8.7215 43.3816C8.49673 43.5165 8.227 43.6963 8.00223 43.5165C7.82241 43.3817 7.77745 43.2018 7.77745 43.022C7.82241 42.8422 7.91232 42.6624 8.09213 42.5725C8.36186 42.3926 8.63159 42.6174 8.81141 42.7972C8.67654 42.8422 8.58663 42.9321 8.45177 42.9771C8.40682 43.022 8.36186 43.067 8.36186 43.067ZM9.30591 55.4295C9.35086 55.4744 9.35086 55.4744 9.39582 55.5194C9.53068 55.5643 9.62059 55.6093 9.75545 55.6542C9.57563 55.8341 9.39582 56.1038 9.08113 56.0139C8.90132 55.9689 8.76645 55.7891 8.67654 55.6093C8.67654 55.4295 8.67654 55.2497 8.85636 55.0698C9.03618 54.8451 9.35086 54.9799 9.62059 55.0698C9.53068 55.1597 9.44077 55.2497 9.35086 55.3396C9.35086 55.3396 9.35086 55.3845 9.30591 55.4295ZM14.2509 66.758C14.2959 66.758 14.2959 66.803 14.3408 66.803C14.4757 66.803 14.6105 66.803 14.7454 66.803C14.6555 67.0278 14.5656 67.3874 14.2509 67.3424C14.0261 67.3424 13.8913 67.2525 13.7564 67.1177C13.6665 66.9378 13.6215 66.758 13.7564 66.5782C13.8463 66.2635 14.206 66.3085 14.4757 66.3534C14.4307 66.4883 14.3858 66.5782 14.2959 66.7131C14.2509 66.7131 14.2509 66.7131 14.2509 66.758ZM22.5675 75.8838C22.6125 75.8838 22.6574 75.8838 22.6574 75.8838C22.7923 75.8388 22.8822 75.7939 23.017 75.7489C23.017 76.0187 23.017 76.3333 22.7024 76.4233C22.5225 76.5132 22.3427 76.4233 22.1629 76.3333C22.028 76.1985 21.9381 76.0187 21.9831 75.8388C21.9831 75.5242 22.3427 75.4342 22.5675 75.3893C22.5675 75.5242 22.5225 75.659 22.5225 75.7939C22.5225 75.8388 22.5225 75.8838 22.5675 75.8838ZM33.3566 81.8178C33.4016 81.8178 33.4465 81.8178 33.4465 81.7728C33.5364 81.6829 33.6263 81.593 33.7612 81.5481C33.8511 81.7728 33.941 82.1325 33.6713 82.3123C33.5364 82.4472 33.3116 82.4472 33.1318 82.4022C32.952 82.3123 32.8171 82.1774 32.7722 81.9976C32.6823 81.6829 32.952 81.5031 33.1768 81.3683C33.2217 81.5031 33.2217 81.638 33.2667 81.7279C33.3116 81.7729 33.3566 81.8178 33.3566 81.8178ZM45.5393 83.9307C45.5842 83.9307 45.5842 83.8857 45.6292 83.8857C45.7191 83.7958 45.7641 83.6609 45.854 83.571C45.9888 83.7958 46.2136 84.0655 46.0338 84.2903C45.9439 84.4701 45.7641 84.5151 45.5842 84.56C45.4044 84.5151 45.2246 84.4701 45.1347 84.2903C44.9549 84.0206 45.1796 83.7508 45.3145 83.571C45.3595 83.6609 45.4494 83.7958 45.4943 83.8857C45.4943 83.8857 45.4943 83.8857 45.5393 83.9307ZM57.722 81.9527C57.722 81.9077 57.7669 81.9077 57.7669 81.8628C57.8119 81.7279 57.8119 81.593 57.8568 81.5031C58.0816 81.638 58.3513 81.8178 58.2614 82.1325C58.2165 82.3573 58.0816 82.4472 57.9018 82.5371C57.722 82.582 57.5421 82.5371 57.3623 82.4022C57.0926 82.2224 57.2275 81.9077 57.3174 81.638C57.4073 81.7279 57.4972 81.8178 57.6321 81.8628C57.6321 81.9077 57.677 81.9527 57.722 81.9527ZM68.601 76.1086C68.601 76.0636 68.601 76.0187 68.6459 76.0187C68.6459 75.8838 68.601 75.7489 68.601 75.6141C68.8707 75.659 69.1854 75.7489 69.1854 76.0636C69.2303 76.2884 69.0955 76.4233 69.0056 76.5581C68.8257 76.648 68.6459 76.693 68.4661 76.6031C68.1514 76.5132 68.1514 76.1535 68.1514 75.9287C68.2863 75.9737 68.3762 76.0187 68.5111 76.0636C68.5111 76.1086 68.556 76.1086 68.601 76.1086ZM76.9625 67.0278C76.9625 66.9828 76.9625 66.9378 76.9625 66.9378C76.9176 66.803 76.8726 66.7131 76.7827 66.5782C77.0524 66.5782 77.3671 66.5332 77.502 66.8479C77.5919 67.0278 77.5469 67.2076 77.457 67.3874C77.3221 67.5222 77.1873 67.6571 76.9625 67.6122C76.6478 67.6122 76.5579 67.2975 76.468 67.0727C76.6029 67.0727 76.7377 67.0727 76.8726 67.0727C76.9176 67.0727 76.9625 67.0278 76.9625 67.0278ZM81.9974 55.6992C81.9974 55.6542 81.9525 55.6542 81.9525 55.6093C81.8626 55.5194 81.7727 55.4295 81.6827 55.3396C81.9075 55.2497 82.2222 55.1148 82.447 55.3396C82.5818 55.4744 82.6268 55.6542 82.5818 55.879C82.4919 56.0588 82.402 56.1937 82.1772 56.2836C81.9075 56.4185 81.6827 56.1487 81.5029 55.924C81.6378 55.879 81.7277 55.8341 81.8626 55.7891C81.9075 55.7442 81.9525 55.7442 81.9974 55.6992ZM57.0926 8.9015C56.9128 8.85655 56.733 8.85655 56.5531 8.8116C56.0137 8.72169 55.4742 8.58682 54.8898 8.67673C54.8898 8.76664 54.8898 8.99141 54.8898 9.08132C54.7999 9.08132 54.6201 9.03637 54.5302 9.03637C54.3054 9.12628 54.0806 9.17123 53.8109 9.26114C53.8559 9.35105 53.9458 9.48591 53.9907 9.57582C53.8109 9.62078 53.6311 9.57582 53.4962 9.53087C53.3164 9.75564 52.9568 9.71069 53.0467 9.396C53.1366 9.396 53.2715 9.35105 53.3614 9.35105C53.0467 9.08132 52.5072 9.12628 52.4173 8.67673C52.3274 8.67673 52.1926 8.63178 52.1026 8.63178C52.0127 8.58682 51.8779 8.58682 51.788 8.54187C51.5632 8.94646 51.0687 8.72169 50.6641 8.85655C50.754 8.9015 50.8889 8.94646 50.9338 8.99141C50.8889 9.35105 50.5292 9.21619 50.4393 8.99141C50.2595 8.99141 50.0797 8.99141 49.9448 8.9015C50.0347 8.85655 50.1696 8.72169 50.2146 8.67673C50.0347 8.54187 49.81 8.407 49.6301 8.22719C49.5402 8.22719 49.3604 8.18223 49.3155 8.18223C49.3604 8.09232 49.4054 7.9125 49.4503 7.82259C48.9558 7.55287 48.4164 7.50791 47.8769 7.418C47.2026 7.28314 46.4833 7.19323 45.854 7.05837C45.1796 7.14828 44.5053 7.28314 43.831 7.37305C43.2916 7.46296 42.7071 7.50791 42.2126 7.77764C42.2576 7.86755 42.3026 8.04737 42.3475 8.18223C42.2576 8.18223 42.0778 8.22719 41.9879 8.22719C41.8081 8.36205 41.5833 8.54187 41.4035 8.67673C41.4934 8.72169 41.6282 8.85655 41.6732 8.9015C41.5383 8.99141 41.3585 9.03637 41.1787 8.99141C41.0888 9.26114 40.7291 9.35105 40.6842 8.99141C40.7741 8.94646 40.909 8.9015 40.9539 8.85655C40.5943 8.72169 40.0998 8.94646 39.8301 8.49691C39.7401 8.49691 39.6053 8.54187 39.5154 8.54187C39.4255 8.54187 39.2906 8.58682 39.2007 8.58682C39.1108 9.08132 38.5713 8.99141 38.2566 9.26114C38.3465 9.26114 38.4814 9.3061 38.5713 9.3061C38.6163 9.66573 38.2566 9.66573 38.1218 9.44096C37.942 9.53087 37.8071 9.57582 37.6273 9.48591C37.6722 9.396 37.7621 9.26114 37.8071 9.17123C37.5823 9.08132 37.3126 9.03637 37.0878 8.94646C36.9979 8.94646 36.8181 8.99141 36.7282 8.99141C36.7282 8.9015 36.7282 8.67673 36.7282 8.58682C36.1887 8.49691 35.6043 8.63178 35.0649 8.72169C34.3906 8.85655 33.6713 8.94646 33.0419 9.03637C32.4575 9.35105 31.8281 9.66573 31.1988 10.0254C30.7043 10.2951 30.2098 10.5199 29.8052 10.9245C29.8501 11.0144 29.985 11.1492 30.03 11.2391C29.94 11.2841 29.8052 11.374 29.7153 11.419C29.5804 11.6437 29.4455 11.8236 29.3107 12.0034C29.4006 12.0483 29.5804 12.0933 29.6703 12.1382C29.5804 12.2731 29.4006 12.363 29.2208 12.408C29.2208 12.6777 28.9061 12.9025 28.7712 12.5878C28.8162 12.5428 28.951 12.408 28.996 12.363C28.5914 12.363 28.1868 12.7226 27.8272 12.408C27.7373 12.4529 27.6474 12.4979 27.5575 12.5878C27.4675 12.6327 27.3776 12.6777 27.2877 12.7226C27.3327 13.2171 26.8382 13.3071 26.6134 13.6667C26.7033 13.6667 26.8382 13.6217 26.9281 13.6217C27.1079 13.9364 26.7483 14.0713 26.5235 13.8915C26.3886 14.0263 26.2538 14.1162 26.074 14.1162C26.074 14.0263 26.1189 13.8465 26.1639 13.7566C25.9391 13.7566 25.6694 13.7566 25.4446 13.7566C25.3547 13.8016 25.2198 13.8915 25.1299 13.8915C25.085 13.8016 25.04 13.6217 24.995 13.5318C24.4556 13.6217 23.9611 13.9364 23.4666 14.2061C22.8372 14.5208 22.2528 14.8805 21.6235 15.1951C21.1739 15.6896 20.6794 16.1841 20.2299 16.7236C19.8702 17.1282 19.4207 17.5328 19.1959 18.0273C19.2858 18.0722 19.4207 18.2071 19.5106 18.2521C19.4656 18.297 19.3308 18.4319 19.2858 18.5218C19.2409 18.7466 19.151 19.0163 19.061 19.2411C19.151 19.2411 19.3308 19.2411 19.4207 19.286C19.3757 19.4658 19.2409 19.6007 19.106 19.6906C19.1959 19.9603 18.9711 20.2301 18.7464 20.0053C18.7913 19.9154 18.8363 19.7805 18.8812 19.7356C18.5216 19.8704 18.2519 20.32 17.8023 20.1401C17.7124 20.2301 17.6675 20.32 17.5775 20.3649C17.4876 20.4548 17.4427 20.4998 17.3528 20.5897C17.5775 21.0392 17.128 21.309 17.0381 21.7136C17.128 21.6686 17.2629 21.5787 17.3078 21.5337C17.5775 21.7585 17.3078 22.0282 17.0381 21.9383C16.9482 22.0732 16.8583 22.2081 16.6785 22.298C16.6785 22.2081 16.6335 22.0282 16.6335 21.9383C16.4087 22.0282 16.184 22.1181 15.9592 22.2081C15.9142 22.253 15.7794 22.3879 15.7344 22.4778C15.6895 22.3879 15.5546 22.253 15.4647 22.1631C14.9702 22.4328 14.7453 22.9723 14.3857 23.3769C13.8912 23.8714 13.2618 24.4558 12.8123 24.9503C12.5425 25.5797 12.4527 26.1191 12.138 26.7485C11.9133 27.243 11.5087 27.6925 11.4637 28.2769C11.5536 28.3219 11.7335 28.3668 11.8683 28.3668C11.8234 28.4567 11.7784 28.5916 11.7335 28.6815C11.7335 28.9063 11.7784 29.176 11.7784 29.4008C11.8683 29.3558 12.0481 29.3109 12.138 29.3109C12.138 29.4907 12.0481 29.6256 11.9582 29.7604C12.138 29.9852 12.0032 30.3448 11.6885 30.165C11.6885 30.0751 11.7335 29.9402 11.7335 29.8503C11.4188 30.0751 11.3289 30.6146 10.8344 30.5696C10.7894 30.6595 10.7445 30.7494 10.6995 30.8843C10.6545 30.9742 10.6096 31.0641 10.5646 31.154C10.9243 31.5136 10.5646 31.9182 10.6096 32.3228C10.6545 32.2779 10.7445 32.143 10.8344 32.0981C11.149 32.2329 10.9692 32.5476 10.6995 32.5926C10.6545 32.7724 10.6096 32.9072 10.4747 33.0421C10.4298 32.9522 10.3399 32.8173 10.2949 32.7274C10.1151 32.9072 9.93527 33.0421 9.7105 33.177C9.66554 33.2669 9.62059 33.4017 9.57564 33.4916C9.48573 33.4467 9.30591 33.3118 9.216 33.2669C8.81141 33.6715 8.76637 34.1211 8.54159 34.6156C8.27187 35.2449 8.04718 36.0091 7.77745 36.6385C7.7325 37.3128 7.55268 37.9422 7.50773 38.6615C7.46277 39.2009 7.238 39.7853 7.37286 40.3247C7.46277 40.3247 7.68754 40.3247 7.77745 40.2798C7.77745 40.3697 7.77745 40.5495 7.7325 40.6394C7.82241 40.8642 7.91232 41.089 8.00223 41.3137C8.09213 41.2688 8.227 41.1789 8.31691 41.089C8.40682 41.2688 8.36186 41.4486 8.31691 41.5835C8.54168 41.7183 8.54168 42.1229 8.227 42.078C8.227 41.9881 8.18204 41.8532 8.18204 41.7633C7.95727 42.078 8.04718 42.6174 7.59763 42.7523C7.59763 42.8422 7.59763 42.9771 7.59763 43.067C7.59763 43.1569 7.55268 43.2917 7.55268 43.3816C8.00223 43.6064 7.82241 44.1009 7.95727 44.4606C8.00223 44.3707 8.04718 44.2358 8.09213 44.1459C8.45177 44.1459 8.36186 44.5505 8.13709 44.6404C8.18204 44.8202 8.18204 45 8.04718 45.1349C8.00223 45.0899 7.86736 44.9551 7.77745 44.8652C7.64259 45.0899 7.50772 45.2697 7.37286 45.4945C7.37286 45.5844 7.32791 45.7642 7.32791 45.8542C7.238 45.8092 7.05818 45.7642 6.92332 45.7642C6.92332 46.3488 6.78836 46.6634 6.74341 47.2028C6.69846 47.9221 6.69854 48.7762 6.65359 49.4505C6.65359 50.1315 6.78836 50.3497 6.96818 51.024C7.10305 51.5634 7.19304 52.5524 7.50773 53.0469C7.59763 53.0019 7.77745 52.912 7.86736 52.912C7.86736 53.0019 7.91232 53.1817 7.95727 53.2267C8.13709 53.4065 8.27195 53.5863 8.45177 53.7662C8.49673 53.6762 8.63159 53.5414 8.67654 53.4515C8.81141 53.5863 8.81141 53.7662 8.81141 53.946C9.08113 53.9909 9.216 54.3506 8.85636 54.4405C8.81141 54.3506 8.7215 54.2157 8.67654 54.1707C8.58663 54.5753 8.81141 55.0249 8.45177 55.2946C8.49673 55.3845 8.49673 55.4744 8.54168 55.6093C8.54168 55.6992 8.58663 55.8341 8.58663 55.924C9.08113 55.9689 9.08114 56.5084 9.35086 56.8231C9.35086 56.7332 9.35086 56.5983 9.35086 56.5084C9.66554 56.4185 9.75545 56.7781 9.53068 56.9579C9.62059 57.0928 9.66554 57.2726 9.62059 57.4524C9.53068 57.4075 9.35086 57.3176 9.30591 57.3176C9.26095 57.5423 9.216 57.8121 9.12609 58.0368C9.12609 58.1267 9.17104 58.3066 9.216 58.3515C9.12609 58.3515 8.90132 58.3965 8.81141 58.3965C8.76645 58.9359 9.08113 59.4754 9.216 60.0149C9.39582 60.6892 9.48564 61.3635 9.66546 62.0378C10.0251 62.6222 10.4297 63.2516 10.7893 63.836C11.104 64.2856 11.2839 64.7351 11.7335 65.0947C11.8234 65.0498 11.9582 64.9149 12.0481 64.825C12.0931 64.9149 12.183 65.0498 12.228 65.0947C12.4527 65.2296 12.6325 65.3195 12.8573 65.4543C12.9023 65.3644 12.9472 65.1846 12.9922 65.0947C13.172 65.1846 13.217 65.3195 13.3069 65.4993C13.5766 65.4543 13.8014 65.769 13.5316 65.9488C13.4867 65.9039 13.3518 65.814 13.3069 65.7241C13.3518 66.1287 13.7115 66.4883 13.4417 66.8929C13.4867 66.9828 13.5766 67.0727 13.6215 67.1626C13.6665 67.2525 13.7115 67.3424 13.8014 67.4323C14.2509 67.3424 14.4307 67.8369 14.7904 68.0168C14.7904 67.9268 14.7454 67.792 14.7005 67.7021C14.9702 67.5223 15.15 67.8369 15.0151 68.0617C15.15 68.1966 15.2399 68.3314 15.2849 68.5112C15.195 68.5112 15.0151 68.4663 14.9252 68.4663C14.9702 68.6911 14.9702 68.9608 15.0151 69.1856C15.0601 69.2755 15.15 69.4103 15.195 69.4553C15.105 69.5003 14.9252 69.5902 14.8353 69.6351C14.9702 70.1746 15.3298 70.6241 15.5995 71.0737C15.9592 71.6581 16.3638 72.2425 16.7234 72.8269C17.2629 73.2315 17.8023 73.681 18.3418 74.1306C18.7913 74.4902 19.1959 74.8498 19.7354 75.0297C19.7803 74.9398 19.8702 74.7599 19.9152 74.67C20.0051 74.715 20.14 74.8049 20.1849 74.8948C20.4097 74.9398 20.6794 74.9847 20.9042 75.0297C20.9042 74.9398 20.9042 74.7599 20.9042 74.67C21.084 74.715 21.2189 74.8049 21.3088 74.9398C21.5785 74.8498 21.8932 75.0297 21.6684 75.2994C21.5785 75.2544 21.4436 75.2095 21.3537 75.1645C21.4886 75.5242 21.9831 75.7489 21.8482 76.1985C21.9381 76.2434 22.028 76.3333 22.118 76.3783C22.2079 76.4682 22.2978 76.5132 22.3427 76.6031C22.7473 76.3333 23.062 76.7829 23.4666 76.8278C23.4216 76.7829 23.3317 76.648 23.2868 76.5581C23.5115 76.2884 23.7813 76.5581 23.6914 76.8278C23.8712 76.9178 24.006 77.0077 24.051 77.1425C23.9611 77.1425 23.7813 77.1875 23.6914 77.2324C23.7813 77.4572 23.9161 77.682 24.006 77.9068C24.051 77.9517 24.1859 78.0866 24.2758 78.1315C24.1859 78.2214 24.051 78.3563 24.006 78.4013C24.3207 78.8958 24.7703 79.2104 25.2198 79.5251C25.7593 79.9747 26.2987 80.3793 26.8382 80.8288C27.4675 81.0536 28.1419 81.2784 28.8162 81.5031C29.3556 81.6829 29.8501 81.9077 30.4345 81.9077C30.4345 81.8178 30.4795 81.593 30.5245 81.5031C30.6144 81.5481 30.7492 81.593 30.8391 81.593C31.0639 81.5481 31.3336 81.5031 31.5584 81.5031C31.5135 81.4132 31.4685 81.2334 31.4236 81.1435C31.6034 81.0985 31.7382 81.1884 31.9181 81.2784C32.0979 81.0985 32.4575 81.1884 32.3676 81.5031C32.2777 81.5031 32.1428 81.5031 32.0529 81.5031C32.3226 81.8178 32.8621 81.8628 32.8621 82.3123C32.952 82.3573 33.0419 82.3573 33.1768 82.4022C33.2667 82.4472 33.3566 82.4921 33.4465 82.5371C33.7612 82.1774 34.2107 82.4472 34.5704 82.4022C34.5254 82.3573 34.3905 82.2673 34.3006 82.2224C34.3905 81.9077 34.7502 82.0426 34.7951 82.3123C34.975 82.3123 35.1548 82.3573 35.2447 82.4921C35.1548 82.5371 35.0199 82.627 34.93 82.6719C35.1098 82.8518 35.2896 83.0316 35.4245 83.2114C35.5144 83.2563 35.6493 83.3013 35.7392 83.3463C35.6942 83.4362 35.6043 83.616 35.5594 83.7059C36.0089 84.0655 36.5484 84.2004 37.0429 84.3802C37.7172 84.605 38.3465 84.8298 39.0209 85.0545C39.6952 85.0545 40.3695 85.0545 41.0888 85.0545C41.6282 85.0545 42.2126 85.0995 42.7521 84.9197C42.7521 84.8298 42.7071 84.605 42.7071 84.5151C42.7971 84.5151 42.9769 84.5151 43.0668 84.5151C43.2915 84.3802 43.5163 84.2903 43.7411 84.2004C43.6961 84.1105 43.5613 83.9756 43.5163 83.9307C43.6961 83.8408 43.831 83.8408 44.0108 83.8857C44.1457 83.6609 44.5053 83.616 44.5053 83.9756C44.4154 84.0206 44.2806 84.0655 44.1906 84.0655C44.5503 84.2453 45.0448 84.1105 45.2246 84.605C45.3145 84.605 45.4494 84.605 45.5393 84.605C45.6292 84.605 45.7641 84.605 45.854 84.605C46.0338 84.1554 46.5283 84.2903 46.8879 84.1105C46.798 84.0655 46.6631 84.0206 46.5732 84.0206C46.5732 83.6609 46.9329 83.7059 47.0677 83.9756C47.2476 83.9307 47.4274 83.9307 47.5622 84.0206C47.5173 84.1105 47.3824 84.2453 47.3375 84.2903C47.5622 84.3802 47.787 84.5151 48.0118 84.605C48.1017 84.605 48.2815 84.605 48.3714 84.605C48.3714 84.6949 48.3265 84.9197 48.3265 85.0096C48.8659 85.1894 49.4054 85.1444 49.9898 85.1444C50.7091 85.1444 51.3834 85.1444 52.0577 85.1444C52.6871 84.9197 53.3614 84.6949 54.0357 84.4701C54.5751 84.2903 55.1146 84.1554 55.5641 83.7958C55.5192 83.7059 55.4293 83.5261 55.3843 83.4362C55.4742 83.3912 55.6091 83.3463 55.699 83.3013C55.8788 83.1215 56.0586 82.9417 56.2385 82.7618C56.1486 82.7169 56.0137 82.627 55.9238 82.582C56.0586 82.4472 56.1935 82.4022 56.3733 82.4022C56.4183 82.1325 56.733 81.9976 56.8678 82.3123C56.8229 82.3573 56.688 82.4472 56.5981 82.4921C57.0027 82.582 57.4522 82.2673 57.722 82.627C57.8119 82.582 57.9018 82.5371 58.0366 82.4921C58.1266 82.4472 58.2165 82.4472 58.3513 82.4022C58.3513 81.9077 58.8908 81.8628 59.1605 81.593C59.0706 81.593 58.9357 81.593 58.8458 81.593C58.711 81.2783 59.0706 81.1884 59.2954 81.3683C59.4302 81.2783 59.6101 81.1884 59.7899 81.2334C59.7449 81.3233 59.7 81.5031 59.655 81.593C59.8798 81.638 60.1495 81.638 60.3743 81.6829C60.4642 81.638 60.5991 81.593 60.689 81.593C60.689 81.6829 60.7339 81.9077 60.7789 81.9976C61.3183 81.9976 61.8578 81.7729 62.3972 81.593C63.0716 81.3683 63.7009 81.1435 64.3752 80.9187C64.9147 80.5141 65.4541 80.0646 65.9936 79.66C66.4431 79.3453 66.8927 79.0306 67.2074 78.5361C67.1175 78.4462 66.9826 78.3113 66.9376 78.2664C66.9826 78.2214 67.1175 78.0866 67.2074 78.0416C67.2973 77.8168 67.4321 77.5921 67.5221 77.3673C67.4321 77.3673 67.2523 77.3223 67.1624 77.2774C67.2523 77.0976 67.3872 77.0077 67.5221 76.9627C67.4771 76.693 67.7468 76.4233 67.9266 76.7379C67.8817 76.7829 67.7918 76.9178 67.7468 77.0077C68.1514 76.9627 68.4661 76.5132 68.8707 76.7829C68.9606 76.693 69.0505 76.648 69.0955 76.5581C69.1854 76.5132 69.2753 76.4232 69.3652 76.3783C69.2303 75.9287 69.7248 75.704 69.8597 75.3443C69.7698 75.3893 69.6349 75.4342 69.545 75.4792C69.3202 75.2095 69.6349 75.0297 69.9046 75.1196C69.9946 74.9847 70.1294 74.8498 70.3092 74.8498C70.3092 74.9398 70.3092 75.1196 70.3092 75.2095C70.534 75.1645 70.8037 75.1196 71.0285 75.0746C71.1184 75.0297 71.2533 74.9398 71.2982 74.8498C71.3432 74.9398 71.4331 75.1196 71.4781 75.2095C72.0175 75.0297 72.4221 74.67 72.8717 74.3104C73.4111 73.8608 73.9955 73.4563 74.49 73.0517C74.8496 72.4673 75.2542 71.8828 75.6139 71.2984C75.9286 70.8489 76.2882 70.3993 76.3781 69.8599C76.2882 69.8149 76.1084 69.725 76.0185 69.6801C76.0634 69.5902 76.1533 69.4553 76.1983 69.4103C76.1983 69.1856 76.2432 68.9158 76.2882 68.6911C76.1983 68.6911 76.0185 68.736 75.9286 68.736C75.9286 68.5562 76.0634 68.4213 76.1983 68.2865C76.0634 68.0617 76.2432 67.7021 76.513 67.9268C76.468 68.0168 76.4231 68.1516 76.4231 68.2415C76.7827 68.0617 76.9625 67.5672 77.4121 67.6571C77.457 67.5672 77.502 67.4773 77.5919 67.3874C77.6368 67.2975 77.7267 67.2076 77.7717 67.1177C77.502 66.7131 77.8616 66.3534 77.9066 65.9488C77.8616 65.9938 77.7267 66.0837 77.6818 66.1736C77.3671 65.9938 77.6368 65.7241 77.9066 65.7241C77.9515 65.5443 78.0414 65.4094 78.2212 65.3195C78.2662 65.4094 78.3111 65.5892 78.3111 65.6791C78.5359 65.5443 78.7157 65.4094 78.9405 65.3195C78.9855 65.2296 79.0754 65.0947 79.1203 65.0498C79.2102 65.0947 79.3451 65.2296 79.435 65.3195C79.8846 64.9598 80.1543 64.4653 80.469 64.0158C80.8736 63.4314 81.2332 62.847 81.5928 62.2626C81.7726 61.5882 81.9525 60.9139 82.0873 60.2396C82.2222 59.7002 82.402 59.1607 82.3571 58.6212C82.2672 58.6212 82.0424 58.5763 81.9525 58.5763C81.9525 58.4864 81.9974 58.3066 82.0424 58.2616C81.9974 58.0368 81.9525 57.7671 81.8626 57.5423C81.7727 57.5873 81.5928 57.6772 81.5479 57.6772C81.5029 57.4974 81.5479 57.3176 81.6378 57.1827C81.458 57.0029 81.5029 56.6432 81.8176 56.7332C81.8176 56.8231 81.8176 56.9579 81.8176 57.0478C82.0873 56.7781 82.0873 56.2387 82.5818 56.1487C82.5818 56.0588 82.6268 55.924 82.6268 55.8341C82.6717 55.7442 82.6717 55.6542 82.7167 55.5194C82.3121 55.2497 82.5818 54.7552 82.4919 54.3955C82.447 54.4854 82.3571 54.6203 82.3121 54.6652C81.9525 54.5753 82.0873 54.2607 82.3571 54.1707C82.3571 53.9909 82.402 53.8111 82.4919 53.6762C82.5369 53.7662 82.6717 53.901 82.7167 53.9909C82.8965 53.8111 83.0314 53.6313 83.2112 53.4515C83.2561 53.3616 83.3011 53.1817 83.3011 53.1368C83.391 53.1817 83.5708 53.2717 83.6607 53.2717C83.9754 52.8221 84.0653 52.2377 84.2002 51.6982C84.38 51.0239 84.5598 50.3496 84.6947 49.6753C84.6497 49.001 84.6048 48.3267 84.5149 47.6074C84.4699 47.0679 84.4699 46.4835 84.2451 45.989C84.1552 45.989 83.9754 46.034 83.8406 46.0789C83.8406 45.989 83.7956 45.8092 83.7956 45.7193C83.6607 45.4945 83.5259 45.3147 83.391 45.0899C83.3461 45.1349 83.2112 45.2697 83.1213 45.3596C83.0314 45.2248 83.0314 45.045 83.0763 44.8652C82.8066 44.7752 82.7617 44.3706 83.1213 44.3706C83.1662 44.4606 83.2112 44.5954 83.2561 44.6853C83.436 44.3257 83.2561 43.8312 83.7057 43.6064C83.7057 43.5165 83.6607 43.3817 83.6607 43.2917C83.6607 43.2018 83.6607 43.067 83.6607 42.9771C83.2112 42.8422 83.3011 42.3027 83.0763 41.9881C83.0763 42.078 83.0314 42.2128 83.0314 42.3027C82.6717 42.3477 82.7167 41.9881 82.9415 41.8082C82.8965 41.6284 82.8516 41.4936 82.9415 41.3137C83.0314 41.3587 83.1662 41.4486 83.2561 41.5385C83.3461 41.3137 83.436 41.089 83.5259 40.8642C83.5259 40.7743 83.5259 40.5945 83.5259 40.5046C83.6158 40.5046 83.8406 40.5046 83.9305 40.5495C84.0653 40.0101 83.9754 39.4256 83.9305 38.8862C83.8855 38.1669 83.8406 37.4926 83.7506 36.8183C83.4809 36.1889 83.2112 35.5596 82.9415 34.9302C82.7167 34.4357 82.5369 33.8962 82.1772 33.4916C82.0873 33.5366 81.9075 33.6715 81.8176 33.7164C81.7726 33.6265 81.7277 33.4916 81.6827 33.4017C81.5029 33.2669 81.3231 33.0871 81.0983 32.9072C81.0534 32.9971 80.9635 33.132 80.9185 33.2219C80.7836 33.0871 80.7387 32.9522 80.6937 32.7724C80.424 32.7724 80.2442 32.4127 80.5589 32.2779C80.6038 32.3228 80.6937 32.4577 80.7837 32.5026C80.8286 32.0981 80.5139 31.6935 80.8286 31.3338C80.7836 31.2439 80.7387 31.154 80.6937 31.0641C80.6488 30.9742 80.6038 30.8843 80.6038 30.7494C80.1093 30.7944 80.0194 30.2549 79.7047 29.9852C79.7047 30.0751 79.7497 30.21 79.7497 30.2999C79.435 30.4347 79.3451 30.0751 79.48 29.8953C79.3901 29.7604 79.3001 29.6256 79.3001 29.4457C79.3901 29.4907 79.5699 29.5356 79.6598 29.5356C79.6598 29.2659 79.6598 29.0411 79.7047 28.8164C79.6598 28.7265 79.6148 28.5916 79.5699 28.5017C79.6598 28.4567 79.8396 28.4118 79.9745 28.4118C79.9295 27.8723 79.6598 27.3329 79.435 26.8384C79.1653 26.209 78.8956 25.5347 78.6258 24.9503C78.2212 24.5007 77.8167 24.0961 77.457 23.6466L77.6368 23.5117C78.0414 23.9613 78.446 24.4108 78.8506 24.8604C79.2552 25.8494 79.7047 26.8384 80.1093 27.8274C80.3791 28.5017 80.469 29.5356 79.7047 29.9402C80.2891 30.0301 80.6937 30.5246 80.8736 31.1091C81.1882 31.6036 81.2781 32.2779 80.9185 32.7274C81.7277 32.4577 82.402 33.2219 82.7167 33.8962C83.1662 34.8852 83.5708 35.8742 83.9754 36.8632C84.0653 37.9421 84.1552 38.9761 84.2451 40.055C84.2901 40.7743 84.0204 41.8082 83.1662 41.9431C83.7057 42.2128 83.9305 42.8422 83.8855 43.4266C84.0204 43.9661 83.8855 44.6404 83.391 45C84.2451 45 84.6497 45.9441 84.7396 46.6633C84.8296 47.7422 84.9195 48.8212 85.0094 49.8551C84.7396 50.8891 84.4699 51.923 84.2002 52.957C83.9754 53.6313 83.436 54.5304 82.5818 54.3955C82.9864 54.8001 82.9864 55.4744 82.8066 56.0139C82.7617 56.5983 82.402 57.1827 81.8626 57.3176C82.6717 57.5873 82.7167 58.6212 82.5818 59.3405C82.3121 60.3745 82.0424 61.4084 81.7727 62.4424C81.1882 63.3415 80.6038 64.2406 80.0194 65.1397C79.6148 65.7241 78.7607 66.3984 78.0414 65.9488C78.3111 66.4883 78.0864 67.1177 77.7267 67.5672C77.502 68.1067 76.9625 68.5112 76.3781 68.5112C77.0524 69.0057 76.7827 70.0397 76.4231 70.6691C75.8386 71.5682 75.2542 72.4673 74.6698 73.3663C73.8157 73.9957 72.9616 74.67 72.1074 75.3443C71.523 75.7489 70.534 76.1086 69.9496 75.4792C70.0395 76.0636 69.6349 76.6031 69.1404 76.8728C68.7358 77.2774 68.1065 77.5471 67.567 77.3223C68.0615 78.0416 67.4321 78.8958 66.8927 79.3453C66.0386 80.0196 65.1844 80.649 64.3303 81.3233C63.3413 81.6829 62.3073 81.9976 61.2734 82.3573C60.5991 82.5371 59.5201 82.582 59.2055 81.7728C59.0706 82.3573 58.5311 82.7169 57.9467 82.8518C57.4522 83.1215 56.7779 83.1664 56.3284 82.7618C56.5531 83.571 55.699 84.2004 55.0247 84.4701C53.9907 84.8298 53.0017 85.1444 51.9678 85.5041C50.8889 85.5041 49.8549 85.5041 48.776 85.5041C48.0567 85.4591 47.0677 85.1444 47.0228 84.2903C46.7081 84.7848 46.0787 84.9646 45.4943 84.8747C44.9099 84.9646 44.2806 84.7848 43.9659 84.2453C43.9209 85.0995 42.887 85.4142 42.1677 85.4591C41.0888 85.4591 40.0099 85.4591 38.9759 85.4591C37.9869 85.0995 36.953 84.7398 35.964 84.3802C35.2896 84.1105 34.4355 83.4811 34.7052 82.6719C34.2557 83.0765 33.5814 82.9866 33.0869 82.7618C32.5025 82.6719 31.963 82.2673 31.8731 81.6829C31.5584 82.4472 30.4795 82.4472 29.8052 82.2224C28.7712 81.8628 27.7822 81.5031 26.7932 81.1435C25.9391 80.4692 25.1299 79.8398 24.2758 79.1655C23.7363 78.7159 23.1519 77.8168 23.6464 77.0976C23.107 77.3223 22.4776 77.0526 22.073 76.648C21.5785 76.3783 21.1739 75.8388 21.2638 75.2544C20.6794 75.8838 19.6904 75.5242 19.106 75.1196C18.2519 74.4453 17.3977 73.7709 16.5885 73.1416C16.0041 72.2425 15.4197 71.3434 14.8353 70.4443C14.4757 69.8149 14.206 68.781 14.8803 68.2865C14.2959 68.3314 13.8014 67.8819 13.5316 67.3424C13.172 66.8929 12.9472 66.2635 13.217 65.7241C12.4977 66.1287 11.6435 65.5443 11.2389 64.9599C10.6545 64.0608 10.0251 63.1617 9.44068 62.2626C9.17096 61.2287 8.81132 60.1947 8.54159 59.1158C8.40673 58.3965 8.63159 57.2726 9.44077 57.0029C8.85636 56.8231 8.54168 56.2387 8.49673 55.6542C8.27195 55.1148 8.27195 54.4405 8.7215 54.0359C7.86736 54.1707 7.148 53.3167 6.96818 52.5974C6.69846 51.5634 6.29386 50.4395 6.06909 49.4505C6.159 48.3716 6.42873 47.3827 6.51864 46.3037C6.60855 45.5845 7.14809 44.5954 8.00223 44.6404C7.50773 44.2807 7.41782 43.6514 7.55268 43.067C7.50773 42.4826 7.7325 41.8532 8.27195 41.5835C7.41782 41.4486 6.92323 40.2798 6.96818 39.5606C7.05809 38.4816 7.10305 37.4477 7.19296 36.4137C7.6425 35.4247 8.09205 34.4807 8.54159 33.4917C8.85627 32.8623 9.84536 32.143 10.6096 32.4577C10.25 31.9632 10.3848 31.2889 10.6545 30.8393C10.7894 30.2999 11.239 29.7604 11.8234 29.7155C11.0591 29.3109 11.0591 28.3219 11.3289 27.6476C11.7784 26.6586 12.138 25.6696 12.5875 24.7256C13.3068 23.9613 14.2137 22.9273 14.9779 22.1631C15.4724 21.6686 16.4087 21.309 17.0381 21.8484C16.8583 21.1291 17.128 20.5447 17.5775 20.1851C17.8922 19.6906 18.4766 19.3759 19.061 19.4658C18.4766 18.8814 18.9262 17.8924 19.3757 17.353C20.095 16.5438 20.8592 15.7796 21.5785 14.9704C22.5225 14.4759 23.4666 13.9814 24.4106 13.4419C25.04 13.1272 26.074 12.9474 26.5235 13.6667C26.5685 13.0823 27.018 12.6327 27.5575 12.408C28.007 12.0483 28.6813 11.9135 29.1758 12.2281C28.8162 11.4639 29.5355 10.6997 30.1648 10.34C31.1089 9.84555 32.0529 9.3061 32.997 8.8116C34.0309 8.63178 35.1098 8.45196 36.1438 8.31709C36.8631 8.22719 37.897 8.407 38.0768 9.21619C38.3016 8.67673 38.886 8.407 39.4704 8.36205C40.0099 8.18223 40.6842 8.27214 41.0438 8.72169C40.9539 7.86755 41.898 7.37305 42.6172 7.23819C43.6961 7.05837 44.7301 6.87855 45.7641 6.69873C46.798 6.87855 47.8769 7.05837 48.9109 7.23819C49.6301 7.37305 50.5292 7.86755 50.4393 8.72169C50.8439 8.27214 51.4733 8.22719 52.0127 8.36205C52.5971 8.36205 53.1816 8.67673 53.4063 9.21619C53.5861 8.407 54.6651 8.22719 55.3394 8.31709C55.8788 8.407 56.4632 8.49691 57.0027 8.58682L57.0926 8.9015Z" fill="#DF0610"/>
</svg>
